<?xml version="1.0" encoding="UTF-8"?>
<!DOCTYPE svg  PUBLIC '-//W3C//DTD SVG 1.1//EN'  'http://www.w3.org/Graphics/SVG/1.1/DTD/svg11.dtd'>
<svg clip-rule="evenodd" fill-rule="evenodd" stroke-linejoin="round" stroke-miterlimit="2" version="1.1" viewBox="0 0 64 64" xml:space="preserve" xmlns="http://www.w3.org/2000/svg"><g transform="translate(-480 -320)"><g transform="translate(480 320)"><rect width="64" height="64" fill="none"/><g transform="translate(-480 -320)"><path d="m538 336c0-5.519-4.481-10-10-10h-32c-5.519 0-10 4.481-10 10v32c0 5.519 4.481 10 10 10h32c5.519 0 10-4.481 10-10v-32z" fill="#95d6a4"/></g><g transform="translate(-480 -320)"><path d="m490 328c-1.256 1.671-2.001 3.749-2.001 5.999v32c0 5.519 4.481 10 10 10h32c2.25 0 4.328-0.745 5.999-2.001-1.825 2.429-4.73 4.001-7.999 4.001h-32c-5.519 0-10-4.481-10-10v-32c0-3.269 1.572-6.174 4.001-7.999z" fill="#78c2a4"/></g><g transform="translate(-482 -320)"><path d="m518 358c-0.265 0-0.52 0.105-0.707 0.293-0.188 0.187-0.293 0.442-0.293 0.707v6c0 0.552-0.448 1-1 1h-13c-0.552 0-1-0.448-1-1v-26c0-0.552 0.448-1 1-1h15c4.418 0 8 3.582 8 8v4c0 4.418-3.582 8-8 8zm-1-4c2.761 0 5-2.239 5-5v-2c0-2.761-2.239-5-5-5h-10c-0.552 0-1 0.448-1 1v18c0 0.265 0.105 0.52 0.293 0.707 0.187 0.188 0.442 0.293 0.707 0.293h5c0.265 0 0.52-0.105 0.707-0.293 0.188-0.187 0.293-0.442 0.293-0.707v-6c0-0.265 0.105-0.52 0.293-0.707 0.187-0.188 0.442-0.293 0.707-0.293h3z" fill="#f9f6f9"/></g></g></g></svg>
